<svg width="1280" height="651" viewBox="0 0 1280 651" fill="none" xmlns="http://www.w3.org/2000/svg">
<g clip-path="url(#clip0_133_76)">
<path d="M778.274 151.633V612.987H255.789V151.633C255.789 140.97 264.881 132.247 275.993 132.247H758.068C769.182 132.247 778.274 140.97 778.274 151.633Z" fill="url(#paint0_linear_133_76)"/>
<path d="M778.274 151.633V171.019H255.789V151.633C255.789 140.97 264.881 132.247 275.993 132.247H758.068C769.182 132.247 778.274 140.97 778.274 151.633Z" fill="url(#paint1_linear_133_76)"/>
<path d="M753.25 151.633C753.25 154.107 755.338 156.107 757.913 156.107C760.487 156.107 762.575 154.104 762.575 151.633C762.575 149.163 760.487 147.162 757.913 147.162C755.338 147.162 753.25 149.16 753.25 151.633Z" fill="url(#paint2_linear_133_76)"/>
<path d="M735.77 151.633C735.77 154.107 737.857 156.107 740.435 156.107C743.013 156.107 745.095 154.104 745.095 151.633C745.095 149.163 743.007 147.162 740.435 147.162C737.863 147.162 735.77 149.16 735.77 151.633Z" fill="#D9DDFC"/>
<path d="M718.281 151.633C718.281 154.107 720.369 156.107 722.944 156.107C725.519 156.107 727.604 154.104 727.604 151.633C727.604 149.163 725.519 147.162 722.944 147.162C720.369 147.162 718.281 149.16 718.281 151.633Z" fill="#D9DDFC"/>
<path d="M363.652 151.633C363.652 154.093 361.553 156.107 358.989 156.107H282.06C279.494 156.107 277.395 154.093 277.395 151.633C277.395 149.174 279.494 147.162 282.06 147.162H358.992C361.555 147.162 363.655 149.171 363.655 151.633H363.652Z" fill="#D9DDFC"/>
<path d="M758.009 226.508V310.809C758.009 318.053 751.832 323.98 744.282 323.98H291.281C283.731 323.98 277.555 318.053 277.555 310.809V226.511C277.555 219.264 283.731 213.337 291.281 213.337H744.282C751.832 213.337 758.009 219.264 758.009 226.508Z" fill="#61699E"/>
<path d="M420.318 503.79C420.318 511.035 414.141 516.964 406.592 516.964H291.281C283.731 516.964 277.555 511.035 277.555 503.79V461.472C277.555 454.225 283.731 448.299 291.281 448.299H406.589C414.139 448.299 420.315 454.225 420.315 461.47V503.79H420.318Z" fill="#C796FE"/>
<path d="M329.024 195.004C329.024 197.477 326.913 199.502 324.338 199.502H284.966C282.389 199.502 280.281 197.477 280.281 195.004V193.303C280.281 190.829 282.392 188.807 284.966 188.807H324.338C326.916 188.807 329.024 190.829 329.024 193.303V195.004Z" fill="#AA87D0"/>
<path d="M753.878 195.004C753.878 197.477 751.77 199.502 749.193 199.502H709.821C707.243 199.502 705.133 197.477 705.133 195.004V193.3C705.133 190.827 707.243 188.804 709.821 188.804H749.193C751.77 188.804 753.878 190.827 753.878 193.3V195.004Z" fill="#AA87D0"/>
<path d="M691.55 195.004C691.55 197.477 689.442 199.502 686.865 199.502H647.493C644.915 199.502 642.805 197.477 642.805 195.004V193.3C642.805 190.827 644.915 188.804 647.493 188.804H686.865C689.442 188.804 691.55 190.827 691.55 193.3V195.004Z" fill="#AA87D0"/>
<path d="M589.166 503.79C589.166 511.035 582.989 516.964 575.439 516.964H460.129C452.579 516.964 446.402 511.035 446.402 503.79V461.47C446.402 454.225 452.579 448.299 460.129 448.299H575.439C582.989 448.299 589.166 454.225 589.166 461.47V503.79Z" fill="#C796FE"/>
<path d="M758.005 503.79C758.005 511.035 751.829 516.964 744.279 516.964H628.971C621.422 516.964 615.242 511.035 615.242 503.79V461.47C615.242 454.225 621.422 448.299 628.971 448.299H744.279C751.829 448.299 758.005 454.225 758.005 461.47V503.79Z" fill="#C796FE"/>
<g opacity="0.5">
<path d="M522.892 501.411C519.563 501.411 518.266 499.184 520.011 496.465L539.432 466.143C541.174 463.422 544.027 463.422 545.769 466.143L565.191 496.465C566.932 499.187 565.635 501.411 562.309 501.411H522.895H522.892Z" fill="url(#paint3_linear_133_76)"/>
</g>
<g opacity="0.5">
<path d="M393.814 495.639C393.814 498.834 391.09 501.447 387.761 501.447H361.451C358.122 501.447 355.398 498.834 355.398 495.639V470.394C355.398 467.2 358.119 464.586 361.448 464.586H387.755C391.084 464.586 393.808 467.2 393.808 470.394V495.639H393.814Z" fill="url(#paint4_linear_133_76)"/>
</g>
<path opacity="0.5" d="M695.348 484.094C695.348 496.476 705.81 506.52 718.72 506.52C731.63 506.52 742.087 496.479 742.087 484.094C742.087 471.709 731.627 461.667 718.72 461.667C705.813 461.667 695.348 471.706 695.348 484.094Z" fill="url(#paint5_linear_133_76)"/>
<path d="M303.306 538.74C303.306 543.83 299.004 547.958 293.699 547.958C288.395 547.958 284.09 543.83 284.09 538.74C284.09 533.651 288.392 529.52 293.699 529.52C299.006 529.52 303.306 533.648 303.306 538.74Z" fill="#A3AFFF"/>
<path d="M472.822 538.74C472.822 543.829 468.519 547.958 463.215 547.958C457.911 547.958 453.605 543.829 453.605 538.74C453.605 533.65 457.908 529.519 463.215 529.519C468.522 529.519 472.822 533.647 472.822 538.74Z" fill="#A3AFFF"/>
<path d="M642.341 538.74C642.341 543.829 638.036 547.958 632.732 547.958C627.427 547.958 623.125 543.829 623.125 538.74C623.125 533.65 627.425 529.519 632.732 529.519C638.039 529.519 642.341 533.647 642.341 538.74Z" fill="#A3AFFF"/>
<g opacity="0.8">
<path d="M422.148 260.756H327.888C324.855 260.756 322.398 258.396 322.398 255.488C322.398 252.58 324.858 250.217 327.888 250.217H422.148C425.182 250.217 427.638 252.577 427.638 255.488C427.638 258.398 425.179 260.756 422.148 260.756Z" fill="url(#paint6_linear_133_76)"/>
</g>
<g opacity="0.8">
<path d="M486.209 279.199H325.141C323.624 279.199 322.395 278.017 322.395 276.564C322.395 275.111 323.624 273.929 325.141 273.929H486.209C487.725 273.929 488.952 275.109 488.952 276.564C488.952 278.019 487.725 279.199 486.209 279.199Z" fill="url(#paint7_linear_133_76)"/>
</g>
<g opacity="0.8">
<path d="M486.209 294.998H325.141C323.624 294.998 322.395 293.818 322.395 292.363C322.395 290.907 323.624 289.73 325.141 289.73H486.209C487.725 289.73 488.952 290.907 488.952 292.363C488.952 293.818 487.725 294.998 486.209 294.998Z" fill="url(#paint8_linear_133_76)"/>
</g>
<path d="M414.812 544.008H320.552C317.522 544.008 315.062 541.648 315.062 538.74C315.062 535.832 317.522 533.47 320.552 533.47H414.812C417.846 533.47 420.302 535.83 420.302 538.74C420.302 541.651 417.846 544.008 414.812 544.008Z" fill="#A3AFFF"/>
<path d="M416.48 569.159H287.685C286.168 569.159 284.941 567.979 284.941 566.524C284.941 565.068 286.171 563.891 287.685 563.891H416.483C417.997 563.891 419.226 565.071 419.226 566.524C419.226 567.976 417.997 569.159 416.483 569.159H416.48Z" fill="#A3AFFF"/>
<path d="M416.48 584.96H287.685C286.168 584.96 284.941 583.78 284.941 582.325C284.941 580.87 286.171 579.692 287.685 579.692H416.483C417.997 579.692 419.226 580.87 419.226 582.325C419.226 583.78 417.997 584.96 416.483 584.96H416.48Z" fill="#A3AFFF"/>
<path d="M582.375 544.008H488.115C485.082 544.008 482.625 541.648 482.625 538.74C482.625 535.832 485.084 533.47 488.115 533.47H582.375C585.408 533.47 587.868 535.83 587.868 538.74C587.868 541.651 585.408 544.008 582.375 544.008Z" fill="#A3AFFF"/>
<path d="M584.04 569.159H455.242C453.726 569.159 452.496 567.979 452.496 566.524C452.496 565.068 453.726 563.891 455.242 563.891H584.04C585.554 563.891 586.781 565.071 586.781 566.524C586.781 567.976 585.554 569.159 584.04 569.159Z" fill="#A3AFFF"/>
<path d="M584.04 584.96H455.242C453.726 584.96 452.496 583.78 452.496 582.325C452.496 580.87 453.726 579.692 455.242 579.692H584.04C585.554 579.692 586.781 580.87 586.781 582.325C586.781 583.78 585.554 584.96 584.04 584.96Z" fill="#A3AFFF"/>
<path d="M751.671 544.008H657.411C654.377 544.008 651.918 541.648 651.918 538.74C651.918 535.832 654.377 533.47 657.411 533.47H751.671C754.704 533.47 757.161 535.83 757.161 538.74C757.161 541.651 754.701 544.008 751.671 544.008Z" fill="#A3AFFF"/>
<path d="M753.346 569.159H624.551C623.034 569.159 621.805 567.979 621.805 566.524C621.805 565.068 623.032 563.891 624.551 563.891H753.346C754.863 563.891 756.09 565.071 756.09 566.524C756.09 567.976 754.863 569.159 753.346 569.159Z" fill="#A3AFFF"/>
<path d="M753.346 584.96H624.551C623.034 584.96 621.805 583.78 621.805 582.325C621.805 580.87 623.032 579.692 624.551 579.692H753.346C754.863 579.692 756.09 580.87 756.09 582.325C756.09 583.78 754.863 584.96 753.346 584.96Z" fill="#A3AFFF"/>
<path d="M635.647 365.896H378.707C369.348 365.896 361.762 373.175 361.762 382.155V389.502C361.762 398.482 369.348 405.762 378.707 405.762H635.647C645.006 405.762 652.592 398.482 652.592 389.502V382.155C652.592 373.175 645.006 365.896 635.647 365.896Z" fill="#C9D5FF"/>
<path d="M607.494 357.55C595.242 357.55 585.301 367.087 585.301 378.843C585.301 390.599 595.239 400.125 607.494 400.125C611.83 400.125 615.863 398.934 619.273 396.874C622.107 395.173 624.524 392.864 626.299 390.135C628.429 386.862 629.676 382.982 629.676 378.843C629.676 367.087 619.749 357.55 607.497 357.55H607.494ZM607.494 393.866C598.864 393.866 591.837 387.127 591.837 378.843C591.837 370.559 598.864 363.82 607.494 363.82C616.124 363.82 623.151 370.562 623.151 378.843C623.151 387.124 616.127 393.866 607.494 393.866Z" fill="url(#paint9_linear_133_76)"/>
<path d="M622.527 402.536L631.543 411.03C634.197 413.576 638.541 413.576 641.198 411.03C643.854 408.484 643.854 404.315 641.198 401.766L632.185 393.269L622.53 402.536H622.527Z" fill="url(#paint10_linear_133_76)"/>
<path d="M630.969 394.428L623.729 401.383L619.156 396.987L619.269 396.877C622.102 395.176 624.52 392.867 626.295 390.137L626.396 390.04L630.969 394.43V394.428Z" fill="url(#paint11_linear_133_76)"/>
</g>
<g clip-path="url(#clip1_133_76)">
<path d="M1195.86 240.92V660.816C1195.86 669.195 1189.78 675.981 1182.27 675.981H644.565C637.056 675.981 630.973 669.195 630.973 660.816V240.92C630.973 232.542 637.056 225.755 644.565 225.755H1182.27C1189.78 225.755 1195.86 232.542 1195.86 240.92Z" fill="#132340"/>
<path d="M1195.86 241.097V274.52H630.973V241.097C630.973 232.621 637.056 225.755 644.565 225.755H1182.27C1189.78 225.755 1195.86 232.621 1195.86 241.097Z" fill="#5000AE"/>
<path d="M647.414 249.857C647.414 246.009 650.544 242.887 654.402 242.887C658.26 242.887 661.389 246.009 661.389 249.857C661.389 253.706 658.26 256.828 654.402 256.828C650.544 256.828 647.414 253.706 647.414 249.857Z" fill="#836AB0"/>
<path d="M669.691 249.857C669.691 246.009 672.821 242.887 676.679 242.887C680.537 242.887 683.667 246.009 683.667 249.857C683.667 253.706 680.537 256.828 676.679 256.828C672.821 256.828 669.691 253.706 669.691 249.857" fill="#FF5340"/>
<path d="M692.633 249.857C692.633 246.009 695.762 242.887 699.621 242.887C703.479 242.887 706.608 246.009 706.608 249.857C706.608 253.706 703.479 256.828 699.621 256.828C695.762 256.828 692.633 253.706 692.633 249.857Z" fill="white"/>
<path d="M673.596 491.857H665.281V483.563H673.596V491.857Z" fill="white"/>
<path d="M673.596 509.654H665.281V501.36H673.596V509.654Z" fill="white"/>
<path d="M673.596 527.452H665.281V519.165H673.596V527.452Z" fill="white"/>
<path d="M673.596 545.257H665.281V536.962H673.596V545.257Z" fill="white"/>
<path d="M673.596 563.054H665.281V554.767H673.596V563.054Z" fill="white"/>
<path d="M673.596 580.859H665.281V572.564H673.596V580.859Z" fill="white"/>
<path d="M673.596 598.655H665.281V590.361H673.596V598.655Z" fill="white"/>
<path d="M673.596 616.46H665.281V608.166H673.596V616.46Z" fill="white"/>
<path d="M673.596 634.25H665.281V625.964H673.596V634.25Z" fill="white"/>
<path d="M673.596 652.056H665.281V643.769H673.596V652.056Z" fill="white"/>
<path d="M863.179 483.563H774.824V491.857H863.179V483.563Z" fill="white"/>
<path d="M924.258 499.455H774.824V507.742H924.258V499.455Z" fill="#A3AFFF"/>
<path d="M878.051 519.165H858.652V527.452H878.051V519.165Z" fill="#CDCDCD"/>
<path d="M901.605 536.962H872.512V545.257H901.605V536.962Z" fill="#CDCDCD"/>
<path d="M1192.7 644.014H1163.6V652.308H1192.7V644.014Z" fill="#CDCDCD"/>
<path d="M1108.98 410.56H1079.89V418.847H1108.98V410.56Z" fill="#CDCDCD"/>
<path d="M901.605 554.767H872.512V563.054H901.605V554.767Z" fill="#CDCDCD"/>
<path d="M885.676 572.564H856.582V580.859H885.676V572.564Z" fill="#CDCDCD"/>
<path d="M851.376 572.564H775.141V580.859H851.376V572.564Z" fill="#A3AFFF"/>
<path d="M883.826 590.361H872.512V598.655H883.826V590.361Z" fill="#CDCDCD"/>
<path d="M1050.3 554.767H1021.21V563.054H1050.3V554.767Z" fill="#CDCDCD"/>
<path d="M920.116 554.767H907.605V563.054H920.116V554.767Z" fill="white"/>
<path d="M1015.98 554.767H924.527V563.054H1015.98V554.767Z" fill="white"/>
<path d="M922.84 536.962H906.219V545.257H922.84V536.962Z" fill="#CA9DFF"/>
<path d="M1130.22 410.561H1113.6V418.847H1130.22V410.561Z" fill="#CA9DFF"/>
<path d="M999.969 536.962H983.348V545.257H999.969V536.962Z" fill="#694CAB"/>
<path d="M978.503 536.962H927.004V545.257H978.503V536.962Z" fill="white"/>
<path d="M924.693 590.361H889.594V598.655H924.693V590.361Z" fill="white"/>
<path d="M1011.07 590.361H985.203V598.655H1011.07V590.361Z" fill="#694CAB"/>
<path d="M980.358 590.361H928.859V598.655H980.358V590.361Z" fill="#CA9DFF"/>
<path d="M994.676 499.455H982.441V507.742H994.676V499.455Z" fill="#694CAB"/>
<path d="M976.207 499.455H930.023V507.742H976.207V499.455Z" fill="#CA9DFF"/>
<path d="M891.902 608.166H872.512V616.46H891.902V608.166Z" fill="#CDCDCD"/>
<path d="M971.567 608.166H940.848V616.46H971.567V608.166Z" fill="#694CAB"/>
<path d="M934.612 608.166H897.672V616.46H934.612V608.166Z" fill="#CA9DFF"/>
<path d="M934.399 483.563H905.758V491.857H934.399V483.563Z" fill="white"/>
<path d="M911.293 627.876H872.512V636.163H911.293V627.876Z" fill="white"/>
<path d="M928.866 643.769H872.512V652.056H928.866V643.769Z" fill="#CDCDCD"/>
<path d="M1036.25 643.769H977.816V652.056H1036.25V643.769Z" fill="#694CAB"/>
<path d="M971.581 643.769H934.633V652.056H971.581V643.769Z" fill="#CA9DFF"/>
<path d="M938.996 627.876H919.605V636.163H938.996V627.876Z" fill="white"/>
<path d="M673.596 294.449H665.281V286.155H673.596V294.449Z" fill="white"/>
<path d="M673.596 312.247H665.281V303.953H673.596V312.247Z" fill="white"/>
<path d="M673.596 330.052H665.281V321.758H673.596V330.052Z" fill="white"/>
<path d="M673.596 347.848H665.281V339.554H673.596V347.848Z" fill="white"/>
<path d="M673.596 365.646H665.281V357.36H673.596V365.646Z" fill="white"/>
<path d="M673.596 383.451H665.281V375.157H673.596V383.451Z" fill="white"/>
<path d="M673.596 401.248H665.281V392.954H673.596V401.248Z" fill="white"/>
<path d="M673.596 419.053H665.281V410.759H673.596V419.053Z" fill="white"/>
<path d="M673.596 436.851H665.281V428.557H673.596V436.851Z" fill="white"/>
<path d="M673.596 454.647H665.281V446.361H673.596V454.647Z" fill="white"/>
<path d="M761.677 286.155H720.234V294.449H761.677V286.155Z" fill="white"/>
<path d="M790.319 302.048H720.234V310.342H790.319V302.048Z" fill="#A3AFFF"/>
<path d="M740.952 321.758H720.234V330.052H740.952V321.758Z" fill="#CDCDCD"/>
<path d="M766.108 339.555H735.027V347.849H766.108V339.555Z" fill="#CDCDCD"/>
<path d="M766.108 357.36H735.027V365.646H766.108V357.36Z" fill="#CDCDCD"/>
<path d="M749.088 375.157H718.008V383.451H749.088V375.157Z" fill="#CDCDCD"/>
<path d="M747.116 392.954H735.027V401.248H747.116V392.954Z" fill="#CDCDCD"/>
<path d="M1056.06 357.36H994.051V365.646H1056.06V357.36Z" fill="#CDCDCD"/>
<path d="M803.596 357.36H772.523V365.646H803.596V357.36Z" fill="white"/>
<path d="M982.899 357.36H823.762V365.646H982.899V357.36Z" fill="white"/>
<path d="M788.808 339.554H771.051V347.848H788.808V339.554Z" fill="#CA9DFF"/>
<path d="M948.781 339.554H913.352V347.848H948.781V339.554Z" fill="#694CAB"/>
<path d="M1111.33 339.555H955.426V347.849H1111.33V339.555Z" fill="#6B7AFF"/>
<path d="M1185.66 339.162H1118.73V348.235H1185.66V339.162Z" fill="#A3AFFF"/>
<path d="M903.013 339.555H793.25V347.849H903.013V339.555Z" fill="white"/>
<path d="M1063.33 301.397H953.566V309.691H1063.33V301.397Z" fill="white"/>
<path d="M1170.26 554.767H1060.5V563.054H1170.26V554.767Z" fill="white"/>
<path d="M1155.93 643.953H1046.16V652.247H1155.93V643.953Z" fill="white"/>
<path d="M790.793 392.954H753.285V401.248H790.793V392.954Z" fill="#CA9DFF"/>
<path d="M883.066 392.954H855.43V401.248H883.066V392.954Z" fill="#694CAB"/>
<path d="M951.978 410.759H848.129V419.053H951.978V410.759Z" fill="white"/>
<path d="M1074.37 410.759H956.68V419.053H1074.37V410.759Z" fill="#6B7AFF"/>
<path d="M850.254 392.954H795.234V401.248H850.254V392.954Z" fill="white"/>
<path d="M937.505 302.048H911.434V310.342H937.505V302.048Z" fill="#694CAB"/>
<path d="M898.137 302.048H799.703V310.342H898.137V302.048Z" fill="#CA9DFF"/>
<path d="M755.753 410.759H735.027V419.053H755.753V410.759Z" fill="#CDCDCD"/>
<path d="M840.865 410.759H808.051V419.053H840.865V410.759Z" fill="#694CAB"/>
<path d="M801.386 410.759H761.922V419.053H801.386V410.759Z" fill="#CA9DFF"/>
<path d="M801.148 286.155H770.551V294.449H801.148V286.155Z" fill="white"/>
<path d="M776.47 430.469H735.027V438.756H776.47V430.469Z" fill="white"/>
<path d="M795.24 446.361H735.027V454.648H795.24V446.361Z" fill="#CDCDCD"/>
<path d="M909.984 446.361H847.539V454.647H909.984V446.361Z" fill="#694CAB"/>
<path d="M840.878 446.361H801.406V454.647H840.878V446.361Z" fill="#CA9DFF"/>
<path d="M806.081 430.469H785.355V438.756H806.081V430.469Z" fill="white"/>
</g>
<path d="M315.006 279.182H123.994C116.265 279.182 110 284.379 110 290.791V485.233C110 491.645 116.265 496.842 123.994 496.842H315.006C322.735 496.842 329 491.645 329 485.233V290.791C329 284.379 322.735 279.182 315.006 279.182Z" fill="url(#paint12_linear_133_76)"/>
<path d="M309.129 363.438C309.129 371.319 301.356 377.77 291.855 377.77H146.75C137.249 377.77 129.473 371.319 129.473 363.438V317.396C129.473 309.515 137.249 303.066 146.75 303.066H291.855C301.356 303.066 309.129 309.515 309.129 317.396V363.438Z" fill="#AA87D0"/>
<path opacity="0.5" d="M230.27 342.007C230.27 355.481 243.437 366.404 259.683 366.404C275.929 366.404 289.087 355.481 289.087 342.007C289.087 328.533 275.925 317.609 259.683 317.609C243.441 317.609 230.27 328.533 230.27 342.007Z" fill="url(#paint13_linear_133_76)"/>
<path d="M163.575 401.461C163.575 406.999 158.158 411.491 151.481 411.491C144.805 411.491 139.391 406.999 139.391 401.461C139.391 395.922 144.801 391.431 151.481 391.431C158.161 391.431 163.575 395.922 163.575 401.461Z" fill="#A3AFFF"/>
<path d="M301.161 407.191H182.544C178.727 407.191 175.633 404.624 175.633 401.458C175.633 398.292 178.727 395.725 182.544 395.725H301.161C304.977 395.725 308.071 398.292 308.071 401.458C308.071 404.624 304.977 407.191 301.161 407.191Z" fill="#A3AFFF"/>
<path d="M303.262 434.552H141.186C139.276 434.552 137.73 433.267 137.73 431.686C137.73 430.104 139.276 428.819 141.186 428.819H303.262C305.169 428.819 306.715 430.101 306.715 431.686C306.715 433.27 305.169 434.552 303.262 434.552Z" fill="#A3AFFF"/>
<path d="M303.262 451.743H141.186C139.276 451.743 137.73 450.461 137.73 448.876C137.73 447.292 139.276 446.013 141.186 446.013H303.262C305.169 446.013 306.715 447.295 306.715 448.876C306.715 450.458 305.169 451.743 303.262 451.743Z" fill="#A3AFFF"/>
<path d="M-160 0H1439.33V748H-160V0Z" fill="url(#paint14_linear_133_76)"/>
<defs>
<linearGradient id="paint0_linear_133_76" x1="255.789" y1="372.617" x2="778.274" y2="372.617" gradientUnits="userSpaceOnUse">
<stop stop-color="#EEFBF4"/>
<stop offset="1" stop-color="#D0D9F2"/>
</linearGradient>
<linearGradient id="paint1_linear_133_76" x1="255.789" y1="151.633" x2="778.274" y2="151.633" gradientUnits="userSpaceOnUse">
<stop stop-color="#2E719D"/>
<stop offset="1" stop-color="#2E3C84"/>
</linearGradient>
<linearGradient id="paint2_linear_133_76" x1="753.25" y1="151.636" x2="762.575" y2="151.636" gradientUnits="userSpaceOnUse">
<stop stop-color="#FDD46F"/>
<stop offset="1" stop-color="#FDAE4F"/>
</linearGradient>
<linearGradient id="paint3_linear_133_76" x1="518.425" y1="481.585" x2="564.997" y2="481.585" gradientUnits="userSpaceOnUse">
<stop stop-color="white"/>
<stop offset="1" stop-color="#E6F3FB"/>
</linearGradient>
<linearGradient id="paint4_linear_133_76" x1="355.444" y1="484.057" x2="393.985" y2="484.057" gradientUnits="userSpaceOnUse">
<stop stop-color="white"/>
<stop offset="1" stop-color="#E6F3FB"/>
</linearGradient>
<linearGradient id="paint5_linear_133_76" x1="695.348" y1="484.094" x2="742.087" y2="484.094" gradientUnits="userSpaceOnUse">
<stop stop-color="white"/>
<stop offset="1" stop-color="#E6F3FB"/>
</linearGradient>
<linearGradient id="paint6_linear_133_76" x1="322.398" y1="255.488" x2="427.641" y2="255.488" gradientUnits="userSpaceOnUse">
<stop stop-color="white"/>
<stop offset="1" stop-color="#E6F3FB"/>
</linearGradient>
<linearGradient id="paint7_linear_133_76" x1="322.395" y1="276.564" x2="488.952" y2="276.564" gradientUnits="userSpaceOnUse">
<stop stop-color="white"/>
<stop offset="1" stop-color="#E6F3FB"/>
</linearGradient>
<linearGradient id="paint8_linear_133_76" x1="322.395" y1="292.363" x2="488.952" y2="292.363" gradientUnits="userSpaceOnUse">
<stop stop-color="white"/>
<stop offset="1" stop-color="#E6F3FB"/>
</linearGradient>
<linearGradient id="paint9_linear_133_76" x1="584.207" y1="377.702" x2="628.458" y2="377.702" gradientUnits="userSpaceOnUse">
<stop stop-color="#5EB4FA"/>
<stop offset="1" stop-color="#4677F1"/>
</linearGradient>
<linearGradient id="paint10_linear_133_76" x1="621.331" y1="401.902" x2="641.933" y2="401.902" gradientUnits="userSpaceOnUse">
<stop stop-color="#5EB4FA"/>
<stop offset="1" stop-color="#4677F1"/>
</linearGradient>
<linearGradient id="paint11_linear_133_76" x1="617.971" y1="394.53" x2="629.749" y2="394.53" gradientUnits="userSpaceOnUse">
<stop stop-color="#2E719D"/>
<stop offset="1" stop-color="#2E3C84"/>
</linearGradient>
<linearGradient id="paint12_linear_133_76" x1="110" y1="388.013" x2="328.997" y2="388.013" gradientUnits="userSpaceOnUse">
<stop stop-color="#EEFBF4"/>
<stop offset="1" stop-color="#D0D9F2"/>
</linearGradient>
<linearGradient id="paint13_linear_133_76" x1="230.27" y1="342.007" x2="289.083" y2="342.007" gradientUnits="userSpaceOnUse">
<stop stop-color="white"/>
<stop offset="1" stop-color="#E6F3FB"/>
</linearGradient>
<linearGradient id="paint14_linear_133_76" x1="639.251" y1="-51.0446" x2="639.437" y2="1280.5" gradientUnits="userSpaceOnUse">
<stop stop-color="#171D4A" stop-opacity="0"/>
<stop offset="0.450204" stop-color="#1A1E35"/>
<stop offset="1" stop-color="#171A2E" stop-opacity="0.96"/>
</linearGradient>
<clipPath id="clip0_133_76">
<rect width="522.485" height="498.399" fill="white" transform="translate(255.789 114.588)"/>
</clipPath>
<clipPath id="clip1_133_76">
<rect width="566.026" height="450.227" fill="white" transform="translate(630.973 225.755)"/>
</clipPath>
</defs>
</svg>
