<svg width="467" height="484" viewBox="0 0 467 484" fill="none" xmlns="http://www.w3.org/2000/svg">
<g clip-path="url(#clip0_90_1304)">
<path d="M365.489 22.0776V297.029H54.1055V22.0776C54.1055 15.7231 59.5238 10.5239 66.1463 10.5239H353.447C360.071 10.5239 365.489 15.7231 365.489 22.0776Z" fill="url(#paint0_linear_90_1304)"/>
<path d="M365.489 22.0776V33.6313H54.1055V22.0776C54.1055 15.7231 59.5238 10.5239 66.1463 10.5239H353.447C360.071 10.5239 365.489 15.7231 365.489 22.0776Z" fill="url(#paint1_linear_90_1304)"/>
<path d="M350.574 22.0778C350.574 23.5518 351.819 24.7442 353.353 24.7442C354.887 24.7442 356.132 23.5502 356.132 22.0778C356.132 20.6055 354.887 19.4131 353.353 19.4131C351.819 19.4131 350.574 20.6039 350.574 22.0778Z" fill="url(#paint2_linear_90_1304)"/>
<path d="M340.156 22.0778C340.156 23.5518 341.401 24.7442 342.937 24.7442C344.473 24.7442 345.714 23.5502 345.714 22.0778C345.714 20.6055 344.469 19.4131 342.937 19.4131C341.404 19.4131 340.156 20.6039 340.156 22.0778Z" fill="#D9DDFC"/>
<path d="M329.734 22.0778C329.734 23.5518 330.979 24.7442 332.513 24.7442C334.048 24.7442 335.29 23.5502 335.29 22.0778C335.29 20.6055 334.048 19.4131 332.513 19.4131C330.979 19.4131 329.734 20.6039 329.734 22.0778Z" fill="#D9DDFC"/>
<path d="M118.387 22.0778C118.387 23.5438 117.136 24.7442 115.608 24.7442H69.7609C68.2315 24.7442 66.9805 23.5438 66.9805 22.0778C66.9805 20.6119 68.2315 19.4131 69.7609 19.4131H115.61C117.138 19.4131 118.389 20.6103 118.389 22.0778H118.387Z" fill="#D9DDFC"/>
<path d="M353.413 66.7005V116.941C353.413 121.259 349.732 124.791 345.232 124.791H75.2585C70.7591 124.791 67.0781 121.259 67.0781 116.941V66.7021C67.0781 62.3831 70.7591 58.8511 75.2585 58.8511H345.232C349.732 58.8511 353.413 62.3832 353.413 66.7005Z" fill="#61699E"/>
<path d="M152.16 231.952C152.16 236.269 148.479 239.803 143.98 239.803H75.2585C70.7591 239.803 67.0781 236.269 67.0781 231.952V206.732C67.0781 202.413 70.7591 198.881 75.2585 198.881H143.978C148.478 198.881 152.159 202.413 152.159 206.73V231.952H152.16Z" fill="#C796FE"/>
<path d="M97.752 47.9249C97.752 49.3989 96.4942 50.6058 94.9598 50.6058H71.4953C69.9592 50.6058 68.7031 49.3989 68.7031 47.9249V46.9112C68.7031 45.4372 69.9609 44.2319 71.4953 44.2319H94.9598C96.4959 44.2319 97.752 45.4372 97.752 46.9112V47.9249Z" fill="#AA87D0"/>
<path d="M350.949 47.9251C350.949 49.399 349.693 50.6059 348.157 50.6059H324.692C323.156 50.6059 321.898 49.399 321.898 47.9251V46.9097C321.898 45.4357 323.156 44.2305 324.692 44.2305H348.157C349.693 44.2305 350.949 45.4357 350.949 46.9097V47.9251Z" fill="#AA87D0"/>
<path d="M313.804 47.9251C313.804 49.399 312.548 50.6059 311.012 50.6059H287.548C286.012 50.6059 284.754 49.399 284.754 47.9251V46.9097C284.754 45.4357 286.012 44.2305 287.548 44.2305H311.012C312.548 44.2305 313.804 45.4357 313.804 46.9097V47.9251Z" fill="#AA87D0"/>
<path d="M252.789 231.952C252.789 236.269 249.108 239.803 244.609 239.803H175.887C171.388 239.803 167.707 236.269 167.707 231.952V206.73C167.707 202.413 171.388 198.881 175.887 198.881H244.609C249.108 198.881 252.789 202.413 252.789 206.73V231.952Z" fill="#C796FE"/>
<path d="M353.41 231.952C353.41 236.269 349.729 239.803 345.23 239.803H276.51C272.011 239.803 268.328 236.269 268.328 231.952V206.73C268.328 202.413 272.011 198.881 276.51 198.881H345.23C349.729 198.881 353.41 202.413 353.41 206.73V231.952Z" fill="#C796FE"/>
<g opacity="0.5">
<path d="M213.289 230.534C211.305 230.534 210.532 229.206 211.572 227.586L223.147 209.515C224.185 207.893 225.885 207.893 226.923 209.515L238.498 227.586C239.536 229.208 238.763 230.534 236.78 230.534H213.291H213.289Z" fill="url(#paint3_linear_90_1304)"/>
</g>
<g opacity="0.5">
<path d="M136.367 227.094C136.367 228.998 134.744 230.555 132.76 230.555H117.08C115.096 230.555 113.473 228.998 113.473 227.094V212.049C113.473 210.145 115.094 208.587 117.078 208.587H132.756C134.74 208.587 136.364 210.145 136.364 212.049V227.094H136.367Z" fill="url(#paint4_linear_90_1304)"/>
</g>
<path opacity="0.5" d="M316.07 220.213C316.07 227.593 322.305 233.579 329.999 233.579C337.693 233.579 343.925 227.594 343.925 220.213C343.925 212.832 337.692 206.848 329.999 206.848C322.307 206.848 316.07 212.83 316.07 220.213Z" fill="url(#paint5_linear_90_1304)"/>
<path d="M82.4248 252.781C82.4248 255.814 79.8607 258.275 76.6996 258.275C73.5385 258.275 70.9727 255.814 70.9727 252.781C70.9727 249.748 73.5368 247.286 76.6996 247.286C79.8624 247.286 82.4248 249.746 82.4248 252.781Z" fill="#A3AFFF"/>
<path d="M183.448 252.78C183.448 255.814 180.884 258.274 177.723 258.274C174.562 258.274 171.996 255.814 171.996 252.78C171.996 249.747 174.56 247.285 177.723 247.285C180.886 247.285 183.448 249.746 183.448 252.78Z" fill="#A3AFFF"/>
<path d="M284.48 252.78C284.48 255.814 281.914 258.274 278.753 258.274C275.591 258.274 273.027 255.814 273.027 252.78C273.027 249.747 275.59 247.285 278.753 247.285C281.915 247.285 284.48 249.746 284.48 252.78Z" fill="#A3AFFF"/>
<g opacity="0.8">
<path d="M153.252 87.1111H97.0765C95.2687 87.1111 93.8047 85.7047 93.8047 83.9716C93.8047 82.2386 95.2704 80.8306 97.0765 80.8306H153.252C155.06 80.8306 156.524 82.237 156.524 83.9716C156.524 85.7063 155.059 87.1111 153.252 87.1111Z" fill="url(#paint6_linear_90_1304)"/>
</g>
<g opacity="0.8">
<path d="M191.429 98.103H95.4375C94.5336 98.103 93.8008 97.3982 93.8008 96.5324C93.8008 95.6667 94.5336 94.9619 95.4375 94.9619H191.429C192.332 94.9619 193.064 95.6651 193.064 96.5324C193.064 97.3998 192.332 98.103 191.429 98.103Z" fill="url(#paint7_linear_90_1304)"/>
</g>
<g opacity="0.8">
<path d="M191.429 107.518H95.4375C94.5336 107.518 93.8008 106.815 93.8008 105.948C93.8008 105.08 94.5336 104.379 95.4375 104.379H191.429C192.332 104.379 193.064 105.08 193.064 105.948C193.064 106.815 192.332 107.518 191.429 107.518Z" fill="url(#paint8_linear_90_1304)"/>
</g>
<path d="M148.877 255.92H92.7015C90.8954 255.92 89.4297 254.514 89.4297 252.781C89.4297 251.048 90.8954 249.64 92.7015 249.64H148.877C150.685 249.64 152.149 251.046 152.149 252.781C152.149 254.515 150.685 255.92 148.877 255.92Z" fill="#A3AFFF"/>
<path d="M149.873 270.909H73.1155C72.2116 270.909 71.4805 270.206 71.4805 269.339C71.4805 268.472 72.2133 267.77 73.1155 267.77H149.875C150.777 267.77 151.51 268.473 151.51 269.339C151.51 270.205 150.777 270.909 149.875 270.909H149.873Z" fill="#A3AFFF"/>
<path d="M149.873 280.326H73.1155C72.2116 280.326 71.4805 279.623 71.4805 278.756C71.4805 277.889 72.2133 277.187 73.1155 277.187H149.875C150.777 277.187 151.51 277.889 151.51 278.756C151.51 279.623 150.777 280.326 149.875 280.326H149.873Z" fill="#A3AFFF"/>
<path d="M248.741 255.92H192.565C190.757 255.92 189.293 254.514 189.293 252.781C189.293 251.048 190.759 249.64 192.565 249.64H248.741C250.548 249.64 252.014 251.046 252.014 252.781C252.014 254.515 250.548 255.92 248.741 255.92Z" fill="#A3AFFF"/>
<path d="M249.732 270.909H172.973C172.069 270.909 171.336 270.206 171.336 269.339C171.336 268.472 172.069 267.77 172.973 267.77H249.732C250.634 267.77 251.365 268.473 251.365 269.339C251.365 270.205 250.634 270.909 249.732 270.909Z" fill="#A3AFFF"/>
<path d="M249.732 280.326H172.973C172.069 280.326 171.336 279.623 171.336 278.756C171.336 277.889 172.069 277.187 172.973 277.187H249.732C250.634 277.187 251.365 277.889 251.365 278.756C251.365 279.623 250.634 280.326 249.732 280.326Z" fill="#A3AFFF"/>
<path d="M349.637 255.92H293.461C291.653 255.92 290.188 254.514 290.188 252.781C290.188 251.048 291.653 249.64 293.461 249.64H349.637C351.445 249.64 352.909 251.046 352.909 252.781C352.909 254.515 351.443 255.92 349.637 255.92Z" fill="#A3AFFF"/>
<path d="M350.633 270.909H273.875C272.971 270.909 272.238 270.206 272.238 269.339C272.238 268.472 272.969 267.77 273.875 267.77H350.633C351.537 267.77 352.268 268.473 352.268 269.339C352.268 270.205 351.537 270.909 350.633 270.909Z" fill="#A3AFFF"/>
<path d="M350.633 280.326H273.875C272.971 280.326 272.238 279.623 272.238 278.756C272.238 277.889 272.969 277.187 273.875 277.187H350.633C351.537 277.187 352.268 277.889 352.268 278.756C352.268 279.623 351.537 280.326 350.633 280.326Z" fill="#A3AFFF"/>
<path d="M280.488 149.771H127.361C121.783 149.771 117.262 154.109 117.262 159.461V163.84C117.262 169.192 121.783 173.53 127.361 173.53H280.488C286.066 173.53 290.587 169.192 290.587 163.84V159.461C290.587 154.109 286.066 149.771 280.488 149.771Z" fill="#C9D5FF"/>
<path d="M263.711 144.797C256.409 144.797 250.484 150.481 250.484 157.487C250.484 164.493 256.408 170.17 263.711 170.17C266.295 170.17 268.698 169.461 270.731 168.233C272.419 167.219 273.86 165.843 274.918 164.217C276.188 162.266 276.931 159.954 276.931 157.487C276.931 150.481 271.014 144.797 263.712 144.797H263.711ZM263.711 166.44C258.567 166.44 254.38 162.424 254.38 157.487C254.38 152.55 258.567 148.534 263.711 148.534C268.854 148.534 273.042 152.552 273.042 157.487C273.042 162.422 268.856 166.44 263.711 166.44Z" fill="url(#paint9_linear_90_1304)"/>
<path d="M272.672 171.607L278.045 176.669C279.626 178.187 282.216 178.187 283.799 176.669C285.382 175.152 285.382 172.667 283.799 171.148L278.427 166.084L272.674 171.607H272.672Z" fill="url(#paint10_linear_90_1304)"/>
<path d="M277.7 166.775L273.385 170.92L270.66 168.3L270.727 168.235C272.416 167.221 273.857 165.845 274.915 164.218L274.975 164.16L277.7 166.777V166.775Z" fill="url(#paint11_linear_90_1304)"/>
</g>
<g clip-path="url(#clip1_90_1304)">
<path d="M465.907 223.745V473.989C465.907 478.982 462.281 483.027 457.806 483.027H137.351C132.875 483.027 129.25 478.982 129.25 473.989V223.745C129.25 218.752 132.875 214.707 137.351 214.707H457.806C462.281 214.707 465.907 218.752 465.907 223.745Z" fill="#132340"/>
<path d="M465.907 223.85V243.769H129.25V223.85C129.25 218.799 132.875 214.707 137.351 214.707H457.806C462.281 214.707 465.907 218.799 465.907 223.85Z" fill="#5000AE"/>
<path d="M139.047 229.071C139.047 226.777 140.912 224.917 143.211 224.917C145.511 224.917 147.376 226.777 147.376 229.071C147.376 231.365 145.511 233.225 143.211 233.225C140.912 233.225 139.047 231.365 139.047 229.071Z" fill="#836AB0"/>
<path d="M152.324 229.071C152.324 226.777 154.189 224.917 156.489 224.917C158.788 224.917 160.653 226.777 160.653 229.071C160.653 231.365 158.788 233.225 156.489 233.225C154.189 233.225 152.324 231.365 152.324 229.071Z" fill="#FF5340"/>
<path d="M165.996 229.071C165.996 226.777 167.861 224.917 170.161 224.917C172.46 224.917 174.325 226.777 174.325 229.071C174.325 231.365 172.46 233.225 170.161 233.225C167.861 233.225 165.996 231.365 165.996 229.071Z" fill="white"/>
<path d="M154.651 373.295H149.695V368.352H154.651V373.295Z" fill="white"/>
<path d="M154.651 383.902H149.695V378.958H154.651V383.902Z" fill="white"/>
<path d="M154.651 394.508H149.695V389.57H154.651V394.508Z" fill="white"/>
<path d="M154.651 405.12H149.695V400.177H154.651V405.12Z" fill="white"/>
<path d="M154.651 415.726H149.695V410.788H154.651V415.726Z" fill="white"/>
<path d="M154.651 426.337H149.695V421.394H154.651V426.337Z" fill="white"/>
<path d="M154.651 436.944H149.695V432H154.651V436.944Z" fill="white"/>
<path d="M154.651 447.555H149.695V442.612H154.651V447.555Z" fill="white"/>
<path d="M154.651 458.157H149.695V453.218H154.651V458.157Z" fill="white"/>
<path d="M154.651 468.768H149.695V463.83H154.651V468.768Z" fill="white"/>
<path d="M267.637 368.352H214.98V373.295H267.637V368.352Z" fill="white"/>
<path d="M304.038 377.823H214.98V382.762H304.038V377.823Z" fill="#A3AFFF"/>
<path d="M276.498 389.57H264.938V394.508H276.498V389.57Z" fill="#CDCDCD"/>
<path d="M290.538 400.177H273.199V405.12H290.538V400.177Z" fill="#CDCDCD"/>
<path d="M464.019 463.976H446.68V468.919H464.019V463.976Z" fill="#CDCDCD"/>
<path d="M414.128 324.845H396.789V329.783H414.128V324.845Z" fill="#CDCDCD"/>
<path d="M290.538 410.788H273.199V415.726H290.538V410.788Z" fill="#CDCDCD"/>
<path d="M281.046 421.394H263.707V426.337H281.046V421.394Z" fill="#CDCDCD"/>
<path d="M260.602 421.394H215.168V426.337H260.602V421.394Z" fill="#A3AFFF"/>
<path d="M279.942 432H273.199V436.944H279.942V432Z" fill="#CDCDCD"/>
<path d="M379.155 410.788H361.816V415.726H379.155V410.788Z" fill="#CDCDCD"/>
<path d="M301.569 410.788H294.113V415.726H301.569V410.788Z" fill="white"/>
<path d="M358.703 410.788H304.199V415.726H358.703V410.788Z" fill="white"/>
<path d="M303.195 400.177H293.289V405.12H303.195V400.177Z" fill="#CA9DFF"/>
<path d="M426.785 324.845H416.879V329.784H426.785V324.845Z" fill="#CA9DFF"/>
<path d="M349.16 400.177H339.254V405.12H349.16V400.177Z" fill="#694CAB"/>
<path d="M336.367 400.177H305.676V405.12H336.367V400.177Z" fill="white"/>
<path d="M304.297 432H283.379V436.944H304.297V432Z" fill="white"/>
<path d="M355.774 432H340.359V436.944H355.774V432Z" fill="#694CAB"/>
<path d="M337.473 432H306.781V436.944H337.473V432Z" fill="#CA9DFF"/>
<path d="M346.006 377.823H338.715V382.762H346.006V377.823Z" fill="#694CAB"/>
<path d="M335 377.823H307.477V382.762H335V377.823Z" fill="#CA9DFF"/>
<path d="M284.755 442.612H273.199V447.555H284.755V442.612Z" fill="#CDCDCD"/>
<path d="M332.234 442.611H313.926V447.554H332.234V442.611Z" fill="#694CAB"/>
<path d="M310.207 442.612H288.191V447.555H310.207V442.612Z" fill="#CA9DFF"/>
<path d="M310.081 368.352H293.012V373.295H310.081V368.352Z" fill="white"/>
<path d="M296.312 454.358H273.199V459.297H296.312V454.358Z" fill="white"/>
<path d="M306.784 463.83H273.199V468.768H306.784V463.83Z" fill="#CDCDCD"/>
<path d="M370.781 463.83H335.957V468.768H370.781V463.83Z" fill="#694CAB"/>
<path d="M332.243 463.83H310.223V468.768H332.243V463.83Z" fill="#CA9DFF"/>
<path d="M312.822 454.358H301.266V459.297H312.822V454.358Z" fill="white"/>
<path d="M154.651 255.647H149.695V250.704H154.651V255.647Z" fill="white"/>
<path d="M154.651 266.254H149.695V261.311H154.651V266.254Z" fill="white"/>
<path d="M154.651 276.864H149.695V271.921H154.651V276.864Z" fill="white"/>
<path d="M154.651 287.471H149.695V282.528H154.651V287.471Z" fill="white"/>
<path d="M154.651 298.078H149.695V293.139H154.651V298.078Z" fill="white"/>
<path d="M154.651 308.689H149.695V303.746H154.651V308.689Z" fill="white"/>
<path d="M154.651 319.295H149.695V314.352H154.651V319.295Z" fill="white"/>
<path d="M154.651 329.906H149.695V324.963H154.651V329.906Z" fill="white"/>
<path d="M154.651 340.513H149.695V335.57H154.651V340.513Z" fill="white"/>
<path d="M154.651 351.12H149.695V346.181H154.651V351.12Z" fill="white"/>
<path d="M207.144 250.704H182.445V255.647H207.144V250.704Z" fill="white"/>
<path d="M224.213 260.175H182.445V265.118H224.213V260.175Z" fill="#A3AFFF"/>
<path d="M194.792 271.921H182.445V276.864H194.792V271.921Z" fill="#CDCDCD"/>
<path d="M209.785 282.528H191.262V287.471H209.785V282.528Z" fill="#CDCDCD"/>
<path d="M209.785 293.139H191.262V298.078H209.785V293.139Z" fill="#CDCDCD"/>
<path d="M199.644 303.746H181.121V308.689H199.644V303.746Z" fill="#CDCDCD"/>
<path d="M198.466 314.352H191.262V319.295H198.466V314.352Z" fill="#CDCDCD"/>
<path d="M382.587 293.139H345.633V298.078H382.587V293.139Z" fill="#CDCDCD"/>
<path d="M232.128 293.139H213.609V298.078H232.128V293.139Z" fill="white"/>
<path d="M338.985 293.139H244.145V298.078H338.985V293.139Z" fill="white"/>
<path d="M223.313 282.528H212.73V287.471H223.313V282.528Z" fill="#CA9DFF"/>
<path d="M318.654 282.528H297.539V287.471H318.654V282.528Z" fill="#694CAB"/>
<path d="M415.525 282.528H322.613V287.471H415.525V282.528Z" fill="#6B7AFF"/>
<path d="M459.823 282.294H419.938V287.701H459.823V282.294Z" fill="#A3AFFF"/>
<path d="M291.376 282.528H225.961V287.471H291.376V282.528Z" fill="white"/>
<path d="M386.919 259.787H321.504V264.73H386.919V259.787Z" fill="white"/>
<path d="M450.65 410.788H385.234V415.726H450.65V410.788Z" fill="white"/>
<path d="M442.107 463.939H376.688V468.882H442.107V463.939Z" fill="white"/>
<path d="M224.498 314.352H202.145V319.295H224.498V314.352Z" fill="#CA9DFF"/>
<path d="M279.49 314.352H263.02V319.295H279.49V314.352Z" fill="#694CAB"/>
<path d="M320.559 324.963H258.668V329.906H320.559V324.963Z" fill="white"/>
<path d="M393.501 324.963H323.359V329.906H393.501V324.963Z" fill="#6B7AFF"/>
<path d="M259.934 314.352H227.145V319.295H259.934V314.352Z" fill="white"/>
<path d="M311.932 260.175H296.395V265.118H311.932V260.175Z" fill="#694CAB"/>
<path d="M288.472 260.175H229.809V265.118H288.472V260.175Z" fill="#CA9DFF"/>
<path d="M203.613 324.963H191.262V329.906H203.613V324.963Z" fill="#CDCDCD"/>
<path d="M254.337 324.963H234.781V329.906H254.337V324.963Z" fill="#694CAB"/>
<path d="M230.808 324.963H207.289V329.906H230.808V324.963Z" fill="#CA9DFF"/>
<path d="M230.668 250.704H212.434V255.647H230.668V250.704Z" fill="white"/>
<path d="M215.96 336.71H191.262V341.648H215.96V336.71Z" fill="white"/>
<path d="M227.146 346.181H191.262V351.12H227.146V346.181Z" fill="#CDCDCD"/>
<path d="M295.531 346.181H258.316V351.12H295.531V346.181Z" fill="#694CAB"/>
<path d="M254.348 346.181H230.824V351.12H254.348V346.181Z" fill="#CA9DFF"/>
<path d="M233.609 336.71H221.258V341.648H233.609V336.71Z" fill="white"/>
</g>
<path d="M101.254 98.0923H6.91184C3.09454 98.0923 0 101.19 0 105.011V220.892C0 224.713 3.09454 227.811 6.91184 227.811H101.254C105.071 227.811 108.166 224.713 108.166 220.892V105.011C108.166 101.19 105.071 98.0923 101.254 98.0923Z" fill="url(#paint12_linear_90_1304)"/>
<path d="M98.351 148.306C98.351 153.003 94.5117 156.847 89.8192 156.847H18.1505C13.458 156.847 9.61719 153.003 9.61719 148.306V120.866C9.61719 116.169 13.458 112.326 18.1505 112.326H89.8192C94.5117 112.326 98.351 116.169 98.351 120.866V148.306Z" fill="#AA87D0"/>
<path opacity="0.5" d="M59.4062 135.534C59.4062 143.564 65.9099 150.074 73.9338 150.074C81.9577 150.074 88.4565 143.564 88.4565 135.534C88.4565 127.504 81.9561 120.994 73.9338 120.994C65.9115 120.994 59.4062 127.504 59.4062 135.534Z" fill="url(#paint13_linear_90_1304)"/>
<path d="M26.4607 170.967C26.4607 174.268 23.785 176.945 20.4873 176.945C17.1897 176.945 14.5156 174.268 14.5156 170.967C14.5156 167.666 17.1881 164.99 20.4873 164.99C23.7866 164.99 26.4607 167.666 26.4607 170.967Z" fill="#A3AFFF"/>
<path d="M94.4133 174.381H35.8274C33.9423 174.381 32.4141 172.851 32.4141 170.964C32.4141 169.077 33.9423 167.547 35.8274 167.547H94.4133C96.2983 167.547 97.8266 169.077 97.8266 170.964C97.8266 172.851 96.2983 174.381 94.4133 174.381Z" fill="#A3AFFF"/>
<path d="M95.453 190.689H15.402C14.4587 190.689 13.6953 189.923 13.6953 188.98C13.6953 188.038 14.4587 187.272 15.402 187.272H95.453C96.3947 187.272 97.158 188.036 97.158 188.98C97.158 189.925 96.3947 190.689 95.453 190.689Z" fill="#A3AFFF"/>
<path d="M95.453 200.934H15.402C14.4587 200.934 13.6953 200.17 13.6953 199.225C13.6953 198.281 14.4587 197.519 15.402 197.519H95.453C96.3947 197.519 97.158 198.283 97.158 199.225C97.158 200.168 96.3947 200.934 95.453 200.934Z" fill="#A3AFFF"/>
<defs>
<linearGradient id="paint0_linear_90_1304" x1="54.1055" y1="153.777" x2="365.489" y2="153.777" gradientUnits="userSpaceOnUse">
<stop stop-color="#EEFBF4"/>
<stop offset="1" stop-color="#D0D9F2"/>
</linearGradient>
<linearGradient id="paint1_linear_90_1304" x1="54.1055" y1="22.0776" x2="365.489" y2="22.0776" gradientUnits="userSpaceOnUse">
<stop stop-color="#2E719D"/>
<stop offset="1" stop-color="#2E3C84"/>
</linearGradient>
<linearGradient id="paint2_linear_90_1304" x1="350.574" y1="22.0794" x2="356.132" y2="22.0794" gradientUnits="userSpaceOnUse">
<stop stop-color="#FDD46F"/>
<stop offset="1" stop-color="#FDAE4F"/>
</linearGradient>
<linearGradient id="paint3_linear_90_1304" x1="210.627" y1="218.718" x2="238.382" y2="218.718" gradientUnits="userSpaceOnUse">
<stop stop-color="white"/>
<stop offset="1" stop-color="#E6F3FB"/>
</linearGradient>
<linearGradient id="paint4_linear_90_1304" x1="113.5" y1="220.192" x2="136.469" y2="220.192" gradientUnits="userSpaceOnUse">
<stop stop-color="white"/>
<stop offset="1" stop-color="#E6F3FB"/>
</linearGradient>
<linearGradient id="paint5_linear_90_1304" x1="316.07" y1="220.213" x2="343.925" y2="220.213" gradientUnits="userSpaceOnUse">
<stop stop-color="white"/>
<stop offset="1" stop-color="#E6F3FB"/>
</linearGradient>
<linearGradient id="paint6_linear_90_1304" x1="93.8047" y1="83.9716" x2="156.526" y2="83.9716" gradientUnits="userSpaceOnUse">
<stop stop-color="white"/>
<stop offset="1" stop-color="#E6F3FB"/>
</linearGradient>
<linearGradient id="paint7_linear_90_1304" x1="93.8008" y1="96.5324" x2="193.064" y2="96.5324" gradientUnits="userSpaceOnUse">
<stop stop-color="white"/>
<stop offset="1" stop-color="#E6F3FB"/>
</linearGradient>
<linearGradient id="paint8_linear_90_1304" x1="93.8008" y1="105.948" x2="193.064" y2="105.948" gradientUnits="userSpaceOnUse">
<stop stop-color="white"/>
<stop offset="1" stop-color="#E6F3FB"/>
</linearGradient>
<linearGradient id="paint9_linear_90_1304" x1="249.832" y1="156.807" x2="276.205" y2="156.807" gradientUnits="userSpaceOnUse">
<stop stop-color="#5EB4FA"/>
<stop offset="1" stop-color="#4677F1"/>
</linearGradient>
<linearGradient id="paint10_linear_90_1304" x1="271.959" y1="171.229" x2="284.237" y2="171.229" gradientUnits="userSpaceOnUse">
<stop stop-color="#5EB4FA"/>
<stop offset="1" stop-color="#4677F1"/>
</linearGradient>
<linearGradient id="paint11_linear_90_1304" x1="269.954" y1="166.836" x2="276.973" y2="166.836" gradientUnits="userSpaceOnUse">
<stop stop-color="#2E719D"/>
<stop offset="1" stop-color="#2E3C84"/>
</linearGradient>
<linearGradient id="paint12_linear_90_1304" x1="0" y1="162.952" x2="108.164" y2="162.952" gradientUnits="userSpaceOnUse">
<stop stop-color="#EEFBF4"/>
<stop offset="1" stop-color="#D0D9F2"/>
</linearGradient>
<linearGradient id="paint13_linear_90_1304" x1="59.4062" y1="135.534" x2="88.4549" y2="135.534" gradientUnits="userSpaceOnUse">
<stop stop-color="white"/>
<stop offset="1" stop-color="#E6F3FB"/>
</linearGradient>
<clipPath id="clip0_90_1304">
<rect width="311.384" height="297.029" fill="white" transform="translate(54.1055)"/>
</clipPath>
<clipPath id="clip1_90_1304">
<rect width="337.333" height="268.32" fill="white" transform="translate(129.25 214.707)"/>
</clipPath>
</defs>
</svg>
