<svg width="163" height="44" viewBox="0 0 163 44" fill="none" xmlns="http://www.w3.org/2000/svg">
<path d="M2.1 32V10.4H16.05V13.79H5.715V19.115H14.25V22.505H5.715V28.61H16.05V32H2.1ZM30.8538 32V24.2C30.8538 23.69 30.8188 23.125 30.7488 22.505C30.6788 21.885 30.5138 21.29 30.2538 20.72C30.0038 20.14 29.6238 19.665 29.1138 19.295C28.6138 18.925 27.9338 18.74 27.0738 18.74C26.6138 18.74 26.1588 18.815 25.7088 18.965C25.2588 19.115 24.8488 19.375 24.4788 19.745C24.1188 20.105 23.8288 20.605 23.6088 21.245C23.3888 21.875 23.2788 22.685 23.2788 23.675L21.1338 22.76C21.1338 21.38 21.3988 20.13 21.9288 19.01C22.4688 17.89 23.2588 17 24.2988 16.34C25.3388 15.67 26.6188 15.335 28.1388 15.335C29.3388 15.335 30.3288 15.535 31.1088 15.935C31.8888 16.335 32.5088 16.845 32.9688 17.465C33.4288 18.085 33.7688 18.745 33.9888 19.445C34.2088 20.145 34.3488 20.81 34.4088 21.44C34.4788 22.06 34.5138 22.565 34.5138 22.955V32H30.8538ZM19.6188 32V15.8H22.8438V20.825H23.2788V32H19.6188ZM44.6595 32.45C43.1695 32.45 41.8695 32.075 40.7595 31.325C39.6495 30.575 38.7895 29.555 38.1795 28.265C37.5695 26.975 37.2645 25.52 37.2645 23.9C37.2645 22.26 37.5695 20.8 38.1795 19.52C38.7995 18.23 39.6745 17.215 40.8045 16.475C41.9345 15.725 43.2645 15.35 44.7945 15.35C46.3345 15.35 47.6245 15.725 48.6645 16.475C49.7145 17.215 50.5095 18.23 51.0495 19.52C51.5895 20.81 51.8595 22.27 51.8595 23.9C51.8595 25.51 51.5895 26.965 51.0495 28.265C50.5095 29.555 49.7045 30.575 48.6345 31.325C47.5645 32.075 46.2395 32.45 44.6595 32.45ZM45.2145 29.21C46.1845 29.21 46.9645 28.99 47.5545 28.55C48.1545 28.1 48.5895 27.475 48.8595 26.675C49.1395 25.875 49.2795 24.95 49.2795 23.9C49.2795 22.84 49.1395 21.915 48.8595 21.125C48.5895 20.325 48.1645 19.705 47.5845 19.265C47.0045 18.815 46.2545 18.59 45.3345 18.59C44.3645 18.59 43.5645 18.83 42.9345 19.31C42.3045 19.78 41.8395 20.42 41.5395 21.23C41.2395 22.03 41.0895 22.92 41.0895 23.9C41.0895 24.89 41.2345 25.79 41.5245 26.6C41.8245 27.4 42.2795 28.035 42.8895 28.505C43.4995 28.975 44.2745 29.21 45.2145 29.21ZM49.2795 32V20.63H48.8295V10.4H52.4745V32H49.2795ZM64.4651 32.45C62.8851 32.45 61.5601 32.075 60.4901 31.325C59.4201 30.575 58.6151 29.555 58.0751 28.265C57.5351 26.965 57.2651 25.51 57.2651 23.9C57.2651 22.27 57.5351 20.81 58.0751 19.52C58.6151 18.23 59.4051 17.215 60.4451 16.475C61.4951 15.725 62.7901 15.35 64.3301 15.35C65.8601 15.35 67.1851 15.725 68.3051 16.475C69.4351 17.215 70.3101 18.23 70.9301 19.52C71.5501 20.8 71.8601 22.26 71.8601 23.9C71.8601 25.52 71.5551 26.975 70.9451 28.265C70.3351 29.555 69.4751 30.575 68.3651 31.325C67.2551 32.075 65.9551 32.45 64.4651 32.45ZM56.6501 39.2V15.8H59.8451V27.17H60.2951V39.2H56.6501ZM63.9101 29.21C64.8501 29.21 65.6251 28.975 66.2351 28.505C66.8451 28.035 67.2951 27.4 67.5851 26.6C67.8851 25.79 68.0351 24.89 68.0351 23.9C68.0351 22.92 67.8851 22.03 67.5851 21.23C67.2851 20.42 66.8201 19.78 66.1901 19.31C65.5601 18.83 64.7601 18.59 63.7901 18.59C62.8701 18.59 62.1201 18.815 61.5401 19.265C60.9601 19.705 60.5301 20.325 60.2501 21.125C59.9801 21.915 59.8451 22.84 59.8451 23.9C59.8451 24.95 59.9801 25.875 60.2501 26.675C60.5301 27.475 60.9651 28.1 61.5551 28.55C62.1551 28.99 62.9401 29.21 63.9101 29.21ZM82.3214 32.45C80.7014 32.45 79.2864 32.085 78.0764 31.355C76.8664 30.625 75.9264 29.62 75.2564 28.34C74.5964 27.05 74.2664 25.57 74.2664 23.9C74.2664 22.2 74.6064 20.71 75.2864 19.43C75.9664 18.15 76.9114 17.15 78.1214 16.43C79.3314 15.71 80.7314 15.35 82.3214 15.35C83.9514 15.35 85.3714 15.715 86.5814 16.445C87.7914 17.175 88.7314 18.185 89.4014 19.475C90.0714 20.755 90.4064 22.23 90.4064 23.9C90.4064 25.58 90.0664 27.065 89.3864 28.355C88.7164 29.635 87.7764 30.64 86.5664 31.37C85.3564 32.09 83.9414 32.45 82.3214 32.45ZM82.3214 29.06C83.7614 29.06 84.8314 28.58 85.5314 27.62C86.2314 26.66 86.5814 25.42 86.5814 23.9C86.5814 22.33 86.2264 21.08 85.5164 20.15C84.8064 19.21 83.7414 18.74 82.3214 18.74C81.3514 18.74 80.5514 18.96 79.9214 19.4C79.3014 19.83 78.8414 20.435 78.5414 21.215C78.2414 21.985 78.0914 22.88 78.0914 23.9C78.0914 25.47 78.4464 26.725 79.1564 27.665C79.8764 28.595 80.9314 29.06 82.3214 29.06ZM94.0113 13.34V10.025H97.6263V13.34H94.0113ZM94.0113 32V15.8H97.6263V32H94.0113ZM113.325 32V24.2C113.325 23.69 113.29 23.125 113.22 22.505C113.15 21.885 112.985 21.29 112.725 20.72C112.475 20.14 112.095 19.665 111.585 19.295C111.085 18.925 110.405 18.74 109.545 18.74C109.085 18.74 108.63 18.815 108.18 18.965C107.73 19.115 107.32 19.375 106.95 19.745C106.59 20.105 106.3 20.605 106.08 21.245C105.86 21.875 105.75 22.685 105.75 23.675L103.605 22.76C103.605 21.38 103.87 20.13 104.4 19.01C104.94 17.89 105.73 17 106.77 16.34C107.81 15.67 109.09 15.335 110.61 15.335C111.81 15.335 112.8 15.535 113.58 15.935C114.36 16.335 114.98 16.845 115.44 17.465C115.9 18.085 116.24 18.745 116.46 19.445C116.68 20.145 116.82 20.81 116.88 21.44C116.95 22.06 116.985 22.565 116.985 22.955V32H113.325ZM102.09 32V15.8H105.315V20.825H105.75V32H102.09ZM130.394 32C129.324 32.2 128.274 32.285 127.244 32.255C126.224 32.235 125.309 32.05 124.499 31.7C123.689 31.34 123.074 30.775 122.654 30.005C122.284 29.305 122.089 28.59 122.069 27.86C122.049 27.13 122.039 26.305 122.039 25.385V11.3H125.639V25.175C125.639 25.825 125.644 26.395 125.654 26.885C125.674 27.375 125.779 27.775 125.969 28.085C126.329 28.685 126.904 29.02 127.694 29.09C128.484 29.16 129.384 29.12 130.394 28.97V32ZM119.099 18.635V15.8H130.394V18.635H119.099ZM140.132 32.45C138.132 32.45 136.507 32 135.257 31.1C134.007 30.2 133.247 28.935 132.977 27.305L136.667 26.735C136.857 27.535 137.277 28.165 137.927 28.625C138.577 29.085 139.397 29.315 140.387 29.315C141.257 29.315 141.927 29.145 142.397 28.805C142.877 28.455 143.117 27.98 143.117 27.38C143.117 27.01 143.027 26.715 142.847 26.495C142.677 26.265 142.297 26.045 141.707 25.835C141.117 25.625 140.212 25.36 138.992 25.04C137.632 24.68 136.552 24.295 135.752 23.885C134.952 23.465 134.377 22.97 134.027 22.4C133.677 21.83 133.502 21.14 133.502 20.33C133.502 19.32 133.767 18.44 134.297 17.69C134.827 16.94 135.567 16.365 136.517 15.965C137.467 15.555 138.587 15.35 139.877 15.35C141.137 15.35 142.252 15.545 143.222 15.935C144.202 16.325 144.992 16.88 145.592 17.6C146.192 18.32 146.562 19.165 146.702 20.135L143.012 20.795C142.922 20.105 142.607 19.56 142.067 19.16C141.537 18.76 140.827 18.535 139.937 18.485C139.087 18.435 138.402 18.565 137.882 18.875C137.362 19.175 137.102 19.6 137.102 20.15C137.102 20.46 137.207 20.725 137.417 20.945C137.627 21.165 138.047 21.385 138.677 21.605C139.317 21.825 140.267 22.095 141.527 22.415C142.817 22.745 143.847 23.125 144.617 23.555C145.397 23.975 145.957 24.48 146.297 25.07C146.647 25.66 146.822 26.375 146.822 27.215C146.822 28.845 146.227 30.125 145.037 31.055C143.857 31.985 142.222 32.45 140.132 32.45Z" fill="white"/>
</svg>
